<svg xmlns="http://www.w3.org/2000/svg" width="256" height="512">
<rect width="100%" height="100%" fill="black"/>
<rect x="0" y="0" width="54" height="112" fill="rgb(227,143,72)" fill-opacity="1.0" />
<rect x="55" y="-5" width="56" height="102" fill="rgb(216,139,70)" fill-opacity="1.0" />
<rect x="102" y="0" width="51" height="102" fill="rgb(224,156,84)" fill-opacity="1.0" />
<rect x="153" y="0" width="51" height="102" fill="rgb(209,136,69)" fill-opacity="1.0" />
<rect x="204" y="0" width="52" height="102" fill="rgb(230,147,72)" fill-opacity="1.0" />
<rect x="0" y="94" width="50" height="105" fill="rgb(181,120,68)" fill-opacity="1.0" />
<rect x="51" y="106" width="51" height="102" fill="rgb(110,95,103)" fill-opacity="1.0" />
<rect x="101" y="108" width="51" height="102" fill="rgb(139,115,101)" fill-opacity="1.0" />
<rect x="149" y="103" width="51" height="102" fill="rgb(132,113,92)" fill-opacity="1.0" />
<rect x="204" y="102" width="56" height="113" fill="rgb(193,135,80)" fill-opacity="1.0" />
<rect x="0" y="204" width="51" height="102" fill="rgb(218,141,70)" fill-opacity="1.0" />
<rect x="51" y="204" width="51" height="102" fill="rgb(149,87,79)" fill-opacity="1.0" />
<rect x="102" y="209" width="51" height="102" fill="rgb(190,85,114)" fill-opacity="1.0" />
<rect x="153" y="204" width="47" height="111" fill="rgb(175,83,105)" fill-opacity="1.0" />
<rect x="209" y="198" width="57" height="106" fill="rgb(206,133,72)" fill-opacity="1.0" />
<rect x="-1" y="307" width="51" height="102" fill="rgb(183,103,55)" fill-opacity="1.0" />
<rect x="50" y="289" width="51" height="102" fill="rgb(196,124,109)" fill-opacity="1.0" />
<rect x="92" y="285" width="63" height="72" fill="rgb(151,78,98)" fill-opacity="1.0" />
<rect x="152" y="316" width="51" height="102" fill="rgb(5,57,134)" fill-opacity="1.0" />
<rect x="203" y="301" width="52" height="102" fill="rgb(247,169,86)" fill-opacity="1.0" />
<rect x="0" y="408" width="51" height="104" fill="rgb(122,88,108)" fill-opacity="1.0" />
<rect x="48" y="415" width="51" height="104" fill="rgb(132,111,136)" fill-opacity="1.0" />
<rect x="99" y="416" width="50" height="105" fill="rgb(176,98,106)" fill-opacity="1.0" />
<rect x="152" y="408" width="51" height="104" fill="rgb(102,110,128)" fill-opacity="1.0" />
<rect x="204" y="407" width="52" height="104" fill="rgb(102,123,112)" fill-opacity="1.0" />
<rect x="74" y="39" width="76" height="85" fill="rgb(130,85,69)" fill-opacity="1.0" />
<rect x="44" y="322" width="125" height="62" fill="rgb(119,104,120)" fill-opacity="1.0" />
<rect x="54" y="-20" width="132" height="95" fill="rgb(194,126,69)" fill-opacity="1.0" />
<rect x="215" y="233" width="48" height="66" fill="rgb(211,137,70)" fill-opacity="1.0" />
<rect x="-3" y="378" width="249" height="50" fill="rgb(98,109,132)" fill-opacity="1.0" />
<rect x="78" y="151" width="157" height="56" fill="rgb(171,145,106)" fill-opacity="1.0" />
<rect x="149" y="396" width="110" height="84" fill="rgb(91,109,132)" fill-opacity="1.0" />
<rect x="25" y="175" width="204" height="32" fill="rgb(155,131,117)" fill-opacity="1.0" />
<rect x="59" y="88" width="127" height="44" fill="rgb(68,50,64)" fill-opacity="1.0" />
<rect x="113" y="255" width="98" height="32" fill="rgb(232,111,108)" fill-opacity="1.0" />
<rect x="21" y="285" width="58" height="72" fill="rgb(221,143,70)" fill-opacity="1.0" />
<rect x="138" y="343" width="73" height="34" fill="rgb(92,86,115)" fill-opacity="1.0" />
<rect x="119" y="366" width="147" height="31" fill="rgb(87,89,124)" fill-opacity="1.0" />
<rect x="92" y="404" width="111" height="30" fill="rgb(102,100,124)" fill-opacity="1.0" />
<rect x="100" y="310" width="57" height="110" fill="rgb(151,86,114)" fill-opacity="1.0" />
<rect x="23" y="11" width="193" height="32" fill="rgb(223,143,70)" fill-opacity="1.0" />
<rect x="186" y="268" width="65" height="54" fill="rgb(221,141,71)" fill-opacity="1.0" />
<rect x="156" y="293" width="30" height="76" fill="rgb(46,64,75)" fill-opacity="1.0" />
<rect x="29" y="128" width="26" height="62" fill="rgb(42,49,82)" fill-opacity="1.0" />
<rect x="-2" y="174" width="39" height="58" fill="rgb(207,134,69)" fill-opacity="1.0" />
<rect x="65" y="427" width="155" height="37" fill="rgb(83,122,143)" fill-opacity="1.0" />
<rect x="227" y="150" width="31" height="77" fill="rgb(208,138,71)" fill-opacity="1.0" />
<rect x="202" y="357" width="30" height="114" fill="rgb(85,112,141)" fill-opacity="1.0" />
<rect x="41" y="355" width="165" height="62" fill="rgb(95,100,127)" fill-opacity="1.0" />
<rect x="66" y="32" width="33" height="62" fill="rgb(226,145,70)" fill-opacity="1.0" />
<rect x="30" y="0" width="96" height="27" fill="rgb(233,146,73)" fill-opacity="1.0" />
<rect x="22" y="402" width="177" height="24" fill="rgb(109,107,130)" fill-opacity="1.0" />
<rect x="45" y="365" width="158" height="39" fill="rgb(84,94,125)" fill-opacity="1.0" />
<rect x="193" y="68" width="37" height="58" fill="rgb(219,142,69)" fill-opacity="1.0" />
<rect x="0" y="-3" width="256" height="66" fill="rgb(227,145,71)" fill-opacity="1.0" />
<rect x="170" y="396" width="35" height="45" fill="rgb(155,111,111)" fill-opacity="1.0" />
<rect x="33" y="359" width="155" height="18" fill="rgb(88,99,130)" fill-opacity="1.0" />
<rect x="91" y="0" width="114" height="29" fill="rgb(235,154,70)" fill-opacity="1.0" />
<rect x="181" y="18" width="69" height="25" fill="rgb(234,160,57)" fill-opacity="1.0" />
<rect x="59" y="434" width="130" height="26" fill="rgb(78,125,151)" fill-opacity="1.0" />
<rect x="194" y="64" width="40" height="27" fill="rgb(227,148,69)" fill-opacity="1.0" />
<rect x="51" y="240" width="80" height="27" fill="rgb(215,92,119)" fill-opacity="1.0" />
<rect x="114" y="310" width="46" height="53" fill="rgb(204,85,116)" fill-opacity="1.0" />
<rect x="0" y="27" width="29" height="173" fill="rgb(218,142,69)" fill-opacity="1.0" />
<rect x="41" y="362" width="203" height="28" fill="rgb(80,99,132)" fill-opacity="1.0" />
<rect x="58" y="168" width="41" height="41" fill="rgb(165,144,132)" fill-opacity="1.0" />
<rect x="155" y="5" width="86" height="74" fill="rgb(228,147,71)" fill-opacity="1.0" />
<rect x="136" y="151" width="81" height="22" fill="rgb(197,164,80)" fill-opacity="1.0" />
<rect x="201" y="285" width="59" height="60" fill="rgb(216,140,71)" fill-opacity="1.0" />
<rect x="16" y="187" width="29" height="65" fill="rgb(218,142,69)" fill-opacity="1.0" />
<rect x="218" y="104" width="37" height="58" fill="rgb(205,138,75)" fill-opacity="1.0" />
<rect x="103" y="301" width="40" height="31" fill="rgb(213,89,119)" fill-opacity="1.0" />
<rect x="153" y="27" width="65" height="34" fill="rgb(223,141,71)" fill-opacity="1.0" />
<rect x="141" y="197" width="44" height="62" fill="rgb(171,81,108)" fill-opacity="1.0" />
<rect x="16" y="23" width="91" height="28" fill="rgb(226,143,72)" fill-opacity="1.0" />
</svg>